<?xml version="1.0" standalone="no"?>
<!DOCTYPE svg PUBLIC "-//W3C//DTD SVG 20010904//EN"
 "http://www.w3.org/TR/2001/REC-SVG-20010904/DTD/svg10.dtd">
<svg version="1.0" xmlns="http://www.w3.org/2000/svg"
 width="1304.000000pt" height="1304.000000pt" viewBox="0 0 1304.000000 1304.000000"
 preserveAspectRatio="xMidYMid meet">
<metadata>
Created by potrace 1.11, written by Peter Selinger 2001-2013
</metadata>
<g transform="translate(0.000000,1304.000000) scale(0.100000,-0.100000)"
fill="#000000" stroke="none">
<path d="M3471 9255 c0 -1526 2 -1945 12 -1946 60 -4 291 -3 299 2 6 4 10 622
11 1785 l2 1779 2791 2 2792 3 4 -31 c3 -16 2 -32 -2 -34 -3 -2 -3 -29 0 -60
3 -31 4 -58 1 -60 -4 -2 -4 -38 -1 -80 3 -42 3 -78 0 -80 -3 -2 -3 -38 0 -80
3 -42 3 -78 0 -80 -3 -2 -3 -38 0 -80 3 -42 3 -78 -1 -80 -3 -2 -2 -29 1 -60
3 -31 3 -58 -1 -61 -4 -2 -3 -20 1 -39 4 -19 5 -37 1 -39 -3 -2 -4 -48 -1
-101 3 -53 3 -98 0 -100 -3 -2 -3 -47 0 -100 3 -53 2 -99 -1 -101 -4 -2 -3
-20 1 -39 4 -19 5 -37 1 -39 -4 -3 -4 -30 -1 -61 3 -31 4 -58 1 -60 -4 -2 -4
-38 -1 -80 3 -42 3 -78 0 -80 -3 -2 -3 -38 0 -80 3 -42 3 -78 0 -80 -3 -2 -3
-38 0 -80 3 -42 3 -78 -1 -80 -3 -2 -2 -29 1 -60 3 -31 3 -58 -1 -61 -4 -2 -3
-20 1 -39 4 -19 5 -37 1 -39 -3 -2 -4 -48 -1 -101 3 -53 3 -98 0 -100 -3 -2
-3 -47 0 -100 3 -53 2 -99 -1 -101 -4 -2 -3 -20 1 -39 4 -19 5 -37 1 -39 -4
-3 -4 -30 -1 -61 3 -31 4 -58 1 -60 -4 -2 -4 -38 -1 -80 3 -42 3 -78 0 -80 -3
-2 -3 -38 0 -80 3 -42 3 -78 0 -80 -3 -2 -3 -38 0 -80 3 -42 3 -78 -1 -80 -3
-2 -2 -29 1 -60 3 -31 3 -58 -1 -61 -4 -2 -3 -20 1 -39 4 -19 5 -37 1 -39 -3
-2 -5 -37 -3 -78 l3 -73 157 0 c143 0 157 2 162 18 3 10 5 885 4 1945 l-1
1927 -3116 3 -3116 2 0 -1945z"/>
<path d="M12532 6555 c-18 -29 27 -104 80 -131 75 -39 180 -35 242 9 33 23 69
57 61 57 -2 0 0 12 5 26 14 35 0 50 -45 48 -39 -2 -61 -16 -70 -44 -8 -26 -57
-43 -103 -35 -32 5 -42 13 -56 42 -10 22 -22 33 -30 30 -8 -3 -17 -3 -20 0
-10 11 -57 9 -64 -2z"/>
<path d="M315 6389 c-3 -3 -3 -16 0 -28 3 -18 -4 -24 -27 -21 -13 2 -126 -44
-140 -57 -10 -9 -18 -13 -18 -10 0 10 -44 -35 -72 -73 -86 -117 -73 -298 30
-407 39 -41 103 -83 128 -83 8 0 14 -3 14 -7 0 -5 16 -9 36 -10 43 -2 47 -5
49 -40 1 -28 1 -28 78 -29 l77 -2 0 33 c0 30 3 33 43 39 150 24 267 158 272
311 2 67 -27 175 -47 175 -5 0 -8 6 -8 14 0 28 -148 136 -187 136 -5 0 -25 3
-46 7 -26 4 -35 9 -28 17 5 6 6 18 2 26 -5 12 -23 16 -79 16 -40 0 -75 -3 -77
-7z m3 -378 c0 -188 0 -189 -22 -182 -43 12 -85 45 -106 83 -12 21 -18 38 -15
38 3 0 3 6 -2 13 -12 19 -5 115 11 145 24 47 81 89 122 91 8 1 12 -53 12 -188z
m195 179 c7 0 25 -11 41 -25 105 -91 79 -279 -46 -330 -35 -14 -38 -14 -39 2
-1 26 -1 335 0 352 1 8 7 11 17 7 9 -3 21 -6 27 -6z"/>
<path d="M968 6364 c-3 -3 -19 -6 -34 -7 l-29 -2 0 -363 c0 -315 2 -363 15
-366 8 -2 44 -3 80 -3 l65 2 72 115 c39 63 75 120 80 126 4 5 15 23 24 40 27
48 82 137 106 169 l22 30 0 -200 c0 -110 0 -219 0 -241 l1 -42 79 1 c49 0 81
4 83 11 2 6 3 171 3 366 0 259 -4 355 -12 355 -6 0 -14 3 -18 7 -4 4 -17 3
-29 -1 -11 -4 -39 -6 -62 -5 -38 2 -41 -1 -64 -44 -13 -25 -29 -50 -35 -56 -9
-11 -17 -23 -47 -78 -7 -13 -16 -25 -19 -28 -3 -3 -23 -34 -44 -70 -22 -36
-61 -98 -87 -139 l-47 -75 -1 238 c0 131 -2 241 -5 245 -2 4 -20 8 -40 9 -20
1 -40 4 -44 6 -5 3 -11 3 -13 0z"/>
<path d="M4269 6367 c-2 -3 -29 -7 -59 -10 -30 -3 -76 -14 -101 -25 -58 -25
-140 -103 -169 -161 -29 -59 -51 -164 -40 -201 4 -15 6 -31 3 -34 -6 -5 26
-108 36 -116 3 -3 12 -16 19 -31 31 -59 115 -130 183 -154 53 -19 149 -26 167
-12 7 5 15 7 18 4 19 -19 193 81 194 111 0 6 4 12 9 12 5 0 11 8 14 19 3 13
-11 28 -57 58 l-61 41 -36 -39 c-20 -21 -48 -43 -63 -49 -45 -17 -118 -12
-154 10 -41 25 -81 70 -82 91 0 8 -5 20 -10 25 -10 10 -15 98 -7 144 8 51 52
113 98 138 36 19 54 23 97 19 59 -6 112 -34 132 -71 l13 -25 61 42 c34 23 63
43 65 44 10 6 -54 84 -87 105 -49 32 -68 40 -122 51 -14 3 -32 8 -41 11 -8 4
-17 5 -20 3z"/>
<path d="M4929 6366 c-2 -3 -20 -8 -38 -11 -123 -21 -235 -131 -279 -270 -12
-38 -5 -210 8 -210 1 0 3 -8 5 -18 8 -43 67 -124 126 -172 68 -56 189 -83 279
-62 133 32 245 149 275 288 43 192 -95 412 -277 444 -18 3 -34 8 -36 10 -2 2
-15 0 -27 -5 -15 -6 -25 -5 -27 1 -2 6 -6 8 -9 5z m107 -177 c37 -17 85 -72
90 -101 1 -5 2 -9 3 -10 12 -15 17 -106 8 -148 -22 -103 -103 -169 -197 -161
-42 3 -104 40 -127 75 -62 95 -52 248 21 316 58 53 131 64 202 29z"/>
<path d="M5475 6360 c-11 -4 -25 -5 -32 -3 -15 6 -19 -151 -15 -504 l3 -231
207 2 c222 3 250 7 297 36 60 38 85 86 85 165 0 63 -66 165 -107 165 -19 0
-15 18 6 30 52 27 85 143 61 214 -14 44 -53 92 -89 110 -14 7 -52 13 -84 12
-33 -1 -61 2 -63 6 -3 4 -12 4 -21 1 -24 -9 -85 -10 -110 -1 -12 4 -24 4 -27
0 -5 -9 -67 -9 -81 0 -6 3 -19 2 -30 -2z m312 -154 c42 -13 50 -96 13 -128
-16 -13 -39 -16 -112 -15 l-93 2 -1 65 c-1 36 2 70 7 75 8 11 152 12 186 1z
m44 -305 c25 -31 24 -81 -1 -109 -23 -25 -19 -24 -135 -24 -47 0 -89 1 -93 1
-11 1 -10 144 1 152 4 3 53 5 108 5 93 -1 102 -3 120 -25z"/>
<path d="M6439 6366 c-2 -3 -20 -7 -39 -9 -19 -3 -37 -6 -40 -7 -3 -1 -9 -3
-15 -4 -28 -4 -99 -51 -139 -92 -220 -222 -81 -617 225 -638 250 -16 442 254
356 499 -45 128 -160 227 -280 241 -28 4 -55 8 -58 10 -3 2 -8 2 -10 0z m82
-170 c40 -17 83 -62 102 -108 17 -41 16 -190 -1 -196 -7 -2 -12 -11 -12 -21 0
-29 -65 -83 -116 -96 -146 -37 -260 115 -218 290 26 110 145 173 245 131z"/>
<path d="M7936 6363 c-3 -3 -131 -6 -283 -6 -153 1 -280 -2 -283 -7 -4 -6 -5
-636 -1 -712 1 -13 13 -16 79 -15 42 0 79 3 82 8 3 4 5 136 4 293 l-1 286 132
0 132 0 1 -267 c0 -148 1 -280 1 -294 l1 -27 82 2 83 1 0 357 c0 339 -5 405
-29 381z"/>
<path d="M8226 6362 c-2 -4 -26 -7 -53 -6 l-49 2 0 -364 c-1 -417 -12 -376
101 -371 l60 2 3 118 3 117 96 0 c131 0 183 26 245 121 55 85 30 243 -50 315
-31 28 -82 58 -82 48 0 -4 -6 -2 -12 3 -7 6 -58 10 -113 9 -55 -1 -110 2 -122
6 -12 4 -24 4 -27 0z m237 -175 c20 -16 28 -32 29 -57 3 -102 -15 -120 -124
-120 l-78 0 0 100 0 100 73 0 c60 0 77 -4 100 -23z"/>
<path d="M9017 6364 c-3 -3 -32 -7 -63 -8 -42 -1 -58 -5 -60 -16 -2 -8 -56
-173 -121 -366 l-119 -350 82 -2 c83 -1 93 3 99 43 1 6 8 24 15 40 7 17 14 38
15 48 3 30 22 35 130 35 l103 0 26 -72 c14 -39 26 -76 26 -82 0 -6 32 -11 85
-12 l85 -1 -6 27 c-7 30 -120 376 -133 407 -12 29 -91 267 -95 285 -2 8 -14
15 -27 15 -13 0 -27 3 -30 8 -3 4 -8 5 -12 1z m14 -314 c11 -41 26 -88 31
-103 6 -15 8 -31 4 -34 -11 -12 -156 -10 -156 2 0 5 16 61 35 124 19 62 35
121 36 130 1 24 25 -34 50 -119z"/>
<path d="M9487 6363 c-4 -3 -20 -6 -37 -5 -16 0 -31 -5 -31 -11 -1 -7 -2 -173
-3 -369 l-1 -356 215 2 c196 2 219 4 260 23 25 12 52 28 61 35 52 43 71 132
44 204 -15 40 -65 95 -97 106 -9 4 -2 17 23 42 64 65 74 172 22 247 -41 61
-77 77 -173 75 -44 0 -80 2 -80 6 0 4 -10 4 -22 -1 -13 -4 -35 -5 -50 0 -15 4
-30 4 -32 0 -6 -8 -68 -7 -82 2 -6 3 -14 4 -17 0z m303 -169 c30 -31 30 -84
-1 -113 -18 -17 -34 -19 -113 -18 l-91 2 -2 55 c-3 99 -7 95 98 94 75 -2 95
-5 109 -20z m12 -273 c17 -3 39 -64 33 -91 -11 -51 -36 -63 -128 -63 -139 2
-125 -6 -125 66 0 99 -6 94 111 92 56 -1 105 -3 109 -4z"/>
<path d="M10417 6364 c-2 -2 -21 -6 -42 -10 -88 -14 -172 -71 -227 -156 -53
-81 -70 -172 -55 -288 4 -29 41 -120 49 -120 4 0 8 -6 8 -13 0 -17 107 -117
125 -117 8 0 15 -4 15 -10 0 -5 8 -10 18 -10 10 0 22 -3 26 -7 3 -4 19 -8 34
-10 15 -1 41 -4 57 -6 47 -5 139 18 188 47 80 46 150 146 175 246 46 191 -97
416 -285 446 -58 9 -82 12 -86 8z m90 -166 c78 -35 116 -101 116 -203 1 -137
-70 -225 -183 -225 -76 0 -128 35 -163 110 -27 57 -28 148 -3 210 19 49 75
106 109 113 46 9 97 7 124 -5z"/>
<path d="M11025 6362 c-3 -4 -30 -7 -58 -7 l-52 0 -3 -367 -2 -366 222 2 c211
2 225 4 263 25 52 30 74 50 92 85 19 37 23 104 6 137 -6 15 -10 29 -7 32 9 8
-74 87 -91 87 -22 0 -19 8 14 36 56 47 78 137 52 215 -16 51 -78 107 -121 112
-20 2 -41 7 -48 11 -7 4 -17 4 -24 0 -16 -10 -78 -12 -84 -2 -3 4 -15 4 -27 0
-25 -9 -86 -8 -109 1 -9 3 -19 3 -23 -1z m258 -165 c19 -12 23 -24 23 -57 -1
-65 -25 -78 -136 -78 l-90 1 -1 26 c-3 79 -1 114 9 120 21 13 171 4 195 -12z
m25 -290 c43 -39 28 -120 -25 -133 -34 -9 -191 -9 -200 -1 -9 10 -10 119 -1
138 11 25 198 21 226 -4z"/>
<path d="M11937 6363 c-3 -2 -25 -6 -49 -7 -93 -4 -207 -85 -261 -185 -33 -59
-40 -89 -40 -176 -1 -90 2 -108 37 -178 48 -99 122 -159 236 -193 38 -12 144
-6 185 10 73 28 91 42 179 136 8 8 22 35 32 60 9 25 20 50 24 55 4 6 7 53 6
105 -1 82 -5 104 -30 158 -16 34 -33 62 -37 62 -5 0 -9 5 -9 12 0 17 -80 85
-128 108 -23 11 -57 22 -75 24 -17 3 -32 5 -32 6 0 4 -34 7 -38 3z m80 -174
c62 -30 109 -119 105 -199 -5 -105 -40 -168 -113 -206 -39 -19 -136 -16 -163
7 -65 54 -92 107 -95 183 -6 176 126 283 266 215z"/>
<path d="M12957 6364 c-3 -3 -21 -6 -39 -6 -32 0 -37 -5 -83 -81 -28 -45 -55
-87 -61 -94 -6 -6 -17 -25 -24 -42 -7 -17 -16 -31 -21 -31 -5 0 -9 -5 -9 -10
0 -9 -66 -116 -80 -130 -3 -3 -14 -22 -24 -42 -35 -68 -41 -49 -40 120 0 87 4
163 8 170 4 7 3 12 -2 12 -4 0 -7 28 -6 63 l2 64 -84 1 -83 0 0 -367 -1 -367
63 -2 c89 -2 104 3 127 46 11 20 28 49 38 64 9 15 37 60 61 100 25 40 51 79
58 86 7 7 13 18 13 24 0 5 10 24 23 41 24 34 39 59 58 95 7 12 15 22 18 22 4
0 6 -106 6 -235 -1 -270 -11 -246 103 -243 l62 2 -2 366 -3 365 -25 1 c-14 0
-30 3 -36 7 -6 3 -14 4 -17 1z"/>
<path d="M1699 6356 c-1 0 -2 -164 -3 -364 -1 -415 -13 -372 99 -370 56 1 60
3 66 27 3 14 1 32 -4 39 -5 6 -6 12 -1 12 5 0 9 51 9 112 l0 113 137 0 c84 0
139 -4 140 -10 0 -5 2 -68 3 -140 2 -71 3 -135 4 -141 1 -7 30 -11 81 -11 l80
0 0 63 c1 35 1 188 1 339 0 151 0 288 -1 304 l0 29 -80 -1 c-66 0 -80 -3 -81
-16 -1 -9 -2 -72 -3 -141 l-1 -125 -137 -1 c-105 -1 -141 2 -149 12 -6 8 -8
14 -3 14 7 0 9 106 5 242 -1 15 -12 17 -81 16 -44 0 -81 -1 -81 -2z"/>
<path d="M2643 6337 c-6 -12 -20 -53 -33 -92 -12 -38 -24 -77 -28 -85 -3 -8
-6 -17 -7 -20 0 -3 -21 -63 -45 -135 -24 -71 -45 -134 -46 -140 -1 -5 -18 -56
-38 -112 -20 -56 -36 -109 -36 -117 0 -11 16 -14 81 -13 86 1 91 3 104 67 2 8
4 15 5 15 1 0 3 7 5 15 2 8 8 27 14 42 l10 27 113 -2 c62 -1 112 -4 111 -7 -2
-3 10 -39 25 -80 l28 -75 82 -1 c45 -1 82 1 82 5 0 6 -60 186 -187 566 l-54
161 -88 1 c-82 1 -89 0 -98 -20z m121 -234 c9 -38 17 -72 18 -78 0 -5 4 -18
10 -28 9 -18 18 -48 21 -77 2 -11 -13 -15 -68 -15 -94 -2 -96 -1 -79 41 8 19
14 37 14 41 1 5 10 40 22 78 24 78 25 81 27 95 3 28 19 2 35 -57z"/>
<path d="M3175 6352 c-7 -5 -10 -126 -9 -357 1 -192 2 -356 3 -362 1 -9 23
-12 79 -10 l77 2 5 150 5 149 140 1 140 0 0 -150 0 -150 85 -1 85 -2 -2 366
-1 367 -81 2 c-45 1 -82 -1 -82 -5 -1 -4 -2 -68 -3 -142 l-1 -135 -140 -1
-140 0 -5 140 -5 141 -70 2 c-38 1 -75 -1 -80 -5z"/>
<path d="M6920 5982 c-6 -2 -10 -36 -10 -76 l0 -72 154 -1 154 -1 4 32 c1 17
1 51 -2 76 l-5 45 -143 0 c-78 0 -147 -1 -152 -3z"/>
<path d="M4647 4582 c-9 -2 -17 -8 -17 -13 0 -18 -2 -24 -9 -34 -7 -9 -20 -52
-22 -72 0 -5 -4 -12 -9 -18 -4 -5 -22 -53 -38 -105 -17 -52 -60 -182 -97 -289
-36 -107 -63 -196 -61 -199 4 -4 118 -6 153 -3 10 1 56 119 58 146 0 6 48 11
117 13 l117 3 7 -36 c3 -19 10 -38 15 -41 5 -3 9 -16 9 -30 0 -43 28 -59 100
-58 36 1 70 2 77 3 12 1 10 14 -7 56 -7 16 -71 208 -75 225 -1 3 -5 12 -8 20
-6 15 -66 196 -71 215 -2 6 -6 19 -10 30 -5 11 -14 37 -22 58 -8 20 -11 37 -7
37 4 0 2 5 -5 12 -7 7 -12 19 -12 28 0 39 -24 52 -97 54 -38 0 -77 0 -86 -2z
m118 -315 c20 -71 35 -131 31 -134 -6 -7 -146 -7 -152 0 -3 3 2 27 11 54 9 26
18 55 20 63 8 35 47 152 50 148 1 -1 19 -61 40 -131z"/>
<path d="M5288 4582 c-24 -3 -26 -7 -25 -47 0 -25 -2 -47 -6 -51 -3 -4 -2 -14
3 -24 5 -10 7 -20 4 -23 -3 -3 -7 -47 -9 -99 -11 -239 -41 -330 -116 -345 -29
-5 -29 -6 -29 -79 l0 -74 28 0 c54 0 130 30 164 64 36 36 54 58 54 66 1 3 8
28 17 55 26 80 37 162 41 307 1 48 5 90 8 94 9 8 141 11 158 3 13 -6 15 -48
15 -293 -1 -192 3 -286 10 -287 5 -1 39 -2 74 -3 73 -1 95 11 82 47 -5 12 -5
32 0 44 5 13 4 25 -2 28 -5 4 -6 12 -2 18 9 15 12 47 4 47 -3 0 -5 15 -4 32 1
18 2 33 3 33 6 0 4 57 -2 61 -5 3 -6 10 -2 15 11 18 11 68 0 73 -8 3 -8 5 0 5
11 1 11 52 -1 70 -3 6 -2 11 2 11 8 0 9 35 3 65 -1 6 -1 12 0 15 6 15 5 62 -2
66 -5 3 -5 13 0 22 4 9 7 32 7 51 l0 34 -225 1 c-124 0 -237 0 -252 -2z"/>
<path d="M5943 4582 l-22 -3 0 -364 c0 -332 2 -363 17 -367 37 -8 340 0 377
10 72 20 135 89 151 165 11 51 4 128 -14 169 -42 96 -118 135 -262 136 -51 0
-95 5 -99 10 -3 6 -6 62 -5 126 1 99 -2 116 -15 117 -64 3 -109 4 -128 1z
m301 -402 c80 -30 76 -166 -6 -188 -24 -6 -119 -8 -148 -3 -4 1 -5 188 -1 199
3 7 133 1 155 -8z"/>
<path d="M6786 4575 c-88 -18 -147 -69 -171 -150 -30 -101 -1 -206 72 -260 31
-23 40 -35 36 -50 -3 -11 -9 -22 -13 -25 -3 -3 -17 -25 -31 -50 -13 -25 -27
-46 -31 -48 -5 -2 -8 -8 -8 -12 0 -5 -16 -35 -34 -66 -19 -32 -33 -60 -31 -63
2 -4 43 -6 91 -5 l87 1 75 134 74 134 37 0 36 -1 1 -127 c0 -70 4 -130 8 -134
7 -8 155 -11 157 -3 1 3 2 168 3 368 l1 362 -30 1 c-154 5 -287 2 -329 -6z
m192 -226 c-2 -83 -3 -88 -25 -92 -13 -2 -26 0 -29 4 -3 5 -12 6 -21 0 -24
-13 -96 7 -115 32 -18 22 -22 56 -12 92 9 35 52 52 131 51 l72 0 -1 -87z"/>
<path d="M7342 4582 l-42 -3 2 -367 3 -366 80 0 80 0 1 140 c0 77 3 145 7 151
5 7 54 11 142 10 129 -1 135 -2 136 -21 0 -12 1 -79 2 -150 l2 -130 78 0 c86
-1 90 2 84 72 -2 17 1 32 7 32 6 0 6 4 -1 11 -6 6 -8 23 -3 44 4 18 4 38 1 44
-4 6 -5 36 -3 68 4 67 4 66 0 116 -2 20 0 37 5 37 4 0 4 8 0 18 -5 9 -7 51 -6
92 2 41 3 82 3 90 0 8 0 36 -1 63 0 52 5 49 -89 49 -16 0 -41 -1 -55 -1 l-24
-1 1 -135 c1 -74 -1 -138 -5 -141 -5 -5 -177 -9 -257 -5 l-25 1 1 140 c1 96
-2 140 -10 141 -51 3 -77 4 -114 1z"/>
<path d="M8308 4575 c-18 -6 -37 -12 -43 -14 -92 -25 -193 -138 -220 -246 -43
-173 44 -364 201 -441 103 -50 240 -40 346 28 50 32 92 87 83 109 -3 8 -31 29
-62 47 l-57 33 -24 -31 c-66 -84 -198 -89 -269 -9 -27 30 -58 89 -46 89 3 0 1
6 -4 13 -20 25 -7 132 22 184 58 108 195 130 282 44 22 -22 45 -35 56 -33 9 2
17 7 17 10 0 4 18 18 40 32 22 14 40 32 40 42 0 27 -76 97 -134 124 -62 28
-174 38 -228 19z"/>
<path d="M3518 3022 l-47 -3 0 -590 -1 -589 884 0 884 0 0 78 c0 42 1 82 2 87
1 6 1 15 0 20 -1 6 -2 36 -1 68 1 39 -3 59 -12 63 -7 2 -332 6 -722 7 l-710 2
-1 423 c-1 233 -4 426 -7 428 -6 6 -201 10 -269 6z"/>
<path d="M9460 3022 c-70 -3 -96 -14 -83 -35 6 -10 7 -126 1 -132 -2 -3 -1
-30 2 -60 3 -31 3 -58 -1 -61 -4 -2 -3 -20 1 -39 4 -19 5 -37 1 -39 -3 -2 -4
-48 -1 -101 3 -53 3 -98 0 -100 -3 -2 -3 -47 0 -100 3 -53 2 -99 -1 -101 -4
-2 -3 -20 1 -39 5 -23 4 -38 -4 -44 -8 -7 -269 -10 -721 -10 -446 0 -711 -4
-714 -10 -4 -5 -6 -76 -6 -158 l0 -148 884 0 884 0 1 584 c1 439 -2 585 -11
588 -15 6 -140 9 -233 5z"/>
</g>
</svg>
